<?xml version="1.0" encoding="utf-8"?>
<!-- Generator: Adobe Illustrator 27.3.0, SVG Export Plug-In . SVG Version: 6.00 Build 0)  -->
<svg version="1.1" id="Layer_1" xmlns="http://www.w3.org/2000/svg" xmlns:xlink="http://www.w3.org/1999/xlink" x="0px" y="0px"
	 viewBox="0 0 230.4 94.8" style="enable-background:new 0 0 230.4 94.8;" xml:space="preserve">
<style type="text/css">
	.st0{enable-background:new    ;}
	.st1{fill:#FF4A4B;}
</style>
<g id="End_Lockup" transform="translate(1.909)">
	<g class="st0">
		<path class="st1" d="M37.1,58.3H19.9l-2.3,8.4H0.4L19.1,12h18.8l18.7,54.7H39.4L37.1,58.3z M33.9,47l-5.3-19.3L23.1,47H33.9z"/>
		<path class="st1" d="M88.4,28.7l-1.1,13.9c-1.5-0.3-3.4-0.6-5.5-0.6c-4.8,0-7.7,2.8-7.7,8.7v16.1H58.3V29.3h13.8l1.9,7.1
			c2.4-5.5,6.4-8.2,10.9-8.2C86.3,28.2,87.3,28.3,88.4,28.7z"/>
		<path class="st1" d="M88.8,48c0-10.9,6.8-19.8,22-19.8c15.2,0,22,8.9,22,19.8c0,10.9-6.8,19.8-22,19.8
			C95.6,67.8,88.8,58.8,88.8,48z M117.1,48c0-4.7-2.6-7.7-6.3-7.7c-3.7,0-6.3,3-6.3,7.7c0,4.8,2.6,7.8,6.3,7.8
			C114.5,55.8,117.1,52.7,117.1,48z"/>
		<path class="st1" d="M178.2,44.2v22.5h-15.8V47.1c0-5.4-1.3-7.3-4.5-7.3c-3.9,0-5,3.3-5,7.5v19.4h-15.8V29.3h14.1l1.7,5.3
			c2.7-4,6.9-6.4,12.4-6.4C174.4,28.2,178.2,34.8,178.2,44.2z"/>
		<path class="st1" d="M226.5,29.3v37.4h-14.8l-1.1-6c-1.9,3.5-5.5,7.1-11.9,7.1c-8.7,0-16.6-6.6-16.6-19.7
			c0-12.2,6.8-19.9,16.1-19.9c6.3,0,10.4,3.7,12.4,7.6v-6.6H226.5z M211,48c0-4.6-2.5-7.7-6.3-7.7s-6.3,3.1-6.3,7.7
			c0,4.7,2.5,7.8,6.3,7.8S211,52.6,211,48z"/>
	</g>
	<g class="st0">
		<path class="st1" d="M194.6,19.6l1.6-1.6c0.4,0.5,1.2,1,2.2,1c0.6,0,1.1-0.2,1.1-0.6c0-0.4-0.4-0.6-0.8-0.7l-1-0.3
			c-1.6-0.5-3-1.2-3-2.9c0-1.8,1.6-2.8,3.7-2.8c2.2,0,3.4,1,3.6,1.3l-1.5,1.7c-0.4-0.5-1.1-1-2-1c-0.7,0-1,0.3-1,0.6
			c0,0.4,0.6,0.6,1,0.7l1.1,0.3c1.1,0.3,2.8,0.9,2.8,2.9c0,1.9-1.6,2.9-3.9,2.9C196.9,21,195.5,20.4,194.6,19.6z"/>
		<path class="st1" d="M209.2,18.6v2.2h-5.8v-9.1h5.8v2.2h-3v1.2h2.7v2h-2.7v1.5H209.2z"/>
		<path class="st1" d="M215.8,19.4H213l-0.4,1.4h-2.9l3.1-9.1h3.1l3.1,9.1h-2.9L215.8,19.4z M215.3,17.5l-0.9-3.2l-0.9,3.2H215.3z"
			/>
		<path class="st1" d="M225.6,13.9h-2.2v6.9h-2.7v-6.9h-2.2v-2.2h7.2V13.9z"/>
	</g>
	<g class="st0">
		<path class="st1" d="M10,75.9v10.6H6.9l-3-6v6H0.7V75.9h3.2l3,6v-6H10z"/>
		<path class="st1" d="M11.3,82.9c0-2.1,1.3-3.9,4.3-3.9c3,0,4.3,1.7,4.3,3.9s-1.3,3.9-4.3,3.9C12.6,86.7,11.3,85,11.3,82.9z
			 M16.8,82.9c0-0.9-0.5-1.5-1.2-1.5c-0.7,0-1.2,0.6-1.2,1.5c0,0.9,0.5,1.5,1.2,1.5C16.3,84.4,16.8,83.8,16.8,82.9z"/>
		<path class="st1" d="M23.8,81.2c0-3.1,2.2-5.5,5.6-5.5c3.3,0,5.5,2.5,5.5,5.5c0,3.1-2.2,5.5-5.5,5.5
			C25.9,86.7,23.8,84.3,23.8,81.2z M31.6,81.2c0-1.6-1-2.6-2.2-2.6s-2.3,1-2.3,2.6c0,1.6,1,2.6,2.3,2.6S31.6,82.8,31.6,81.2z"/>
		<path class="st1" d="M41.8,79.1l-0.2,2.7c-0.3-0.1-0.7-0.1-1.1-0.1c-0.9,0-1.5,0.5-1.5,1.7v3.1H36v-7.3h2.7l0.4,1.4
			c0.5-1.1,1.2-1.6,2.1-1.6C41.4,79,41.6,79.1,41.8,79.1z"/>
		<path class="st1" d="M50.9,75.9v10.6H48l-0.2-1.2c-0.4,0.7-1.1,1.4-2.3,1.4c-1.7,0-3.2-1.3-3.2-3.8c0-2.4,1.3-3.9,3.1-3.9
			c1.2,0,2,0.7,2.4,1.5v-4.6H50.9z M47.9,82.9c0-0.9-0.5-1.5-1.2-1.5c-0.7,0-1.2,0.6-1.2,1.5c0,0.9,0.5,1.5,1.2,1.5
			C47.4,84.4,47.9,83.8,47.9,82.9z"/>
		<path class="st1" d="M52.2,76.7c0-0.9,0.7-1.6,1.6-1.6s1.6,0.7,1.6,1.6s-0.7,1.6-1.6,1.6S52.2,77.6,52.2,76.7z M52.3,79.2h3.1v7.3
			h-3.1V79.2z"/>
		<path class="st1" d="M64.8,82.1v4.4h-3.1v-3.8c0-1-0.3-1.4-0.9-1.4c-0.8,0-1,0.6-1,1.5v3.8h-3.1v-7.3h2.7l0.3,1
			c0.5-0.8,1.3-1.2,2.4-1.2C64,79,64.8,80.3,64.8,82.1z"/>
		<path class="st1" d="M74.5,79.2v7.3h-2.9l-0.2-1.2c-0.4,0.7-1.1,1.4-2.3,1.4c-1.7,0-3.2-1.3-3.2-3.8c0-2.4,1.3-3.9,3.1-3.9
			c1.2,0,2,0.7,2.4,1.5v-1.3H74.5z M71.5,82.9c0-0.9-0.5-1.5-1.2-1.5c-0.7,0-1.2,0.6-1.2,1.5c0,0.9,0.5,1.5,1.2,1.5
			C71,84.4,71.5,83.8,71.5,82.9z"/>
		<path class="st1" d="M81.7,79.1l-0.2,2.7c-0.3-0.1-0.7-0.1-1.1-0.1c-0.9,0-1.5,0.5-1.5,1.7v3.1h-3.1v-7.3h2.7l0.4,1.4
			c0.5-1.1,1.2-1.6,2.1-1.6C81.3,79,81.5,79.1,81.7,79.1z"/>
		<path class="st1" d="M90.7,79.2l-4.1,10.2h-2.7l1-2.3l-3.2-7.8H85l1.2,4.6l1.3-4.6H90.7z"/>
		<path class="st1" d="M104.2,81.2c0,2.9-2.2,5.3-5.9,5.3h-4V75.9h4C102,75.9,104.2,78.3,104.2,81.2z M100.9,81.2
			c0-1.9-1.1-2.7-2.8-2.7h-0.6v5.5H98C99.8,83.9,100.9,83.1,100.9,81.2z"/>
		<path class="st1" d="M111.2,79.1l-0.2,2.7c-0.3-0.1-0.7-0.1-1.1-0.1c-0.9,0-1.5,0.5-1.5,1.7v3.1h-3.1v-7.3h2.7l0.4,1.4
			c0.5-1.1,1.2-1.6,2.1-1.6C110.8,79,111,79.1,111.2,79.1z"/>
		<path class="st1" d="M111.9,76.7c0-0.9,0.7-1.6,1.6-1.6c0.9,0,1.6,0.7,1.6,1.6s-0.7,1.6-1.6,1.6C112.7,78.3,111.9,77.6,111.9,76.7
			z M112,79.2h3.1v7.3H112V79.2z"/>
		<path class="st1" d="M124.7,79.2l-2.9,7.3h-3.1l-3-7.3h3.3l1.3,4.7l1.2-4.7H124.7z"/>
		<path class="st1" d="M133,83.6h-5.3c0.1,0.8,0.7,1.2,1.6,1.2c1,0,1.7-0.5,1.9-0.7l1.6,1.4c-1,0.9-2.3,1.3-3.7,1.3
			c-2.9,0-4.4-1.7-4.4-3.9c0-2.2,1.4-3.9,4.2-3.9c2.6,0,4.1,1.4,4.1,3.9C133.1,83.2,133,83.4,133,83.6z M127.7,82.2h2.4
			c-0.1-0.8-0.5-1.2-1.1-1.2C128.3,81,127.8,81.4,127.7,82.2z"/>
	</g>
</g>
</svg>
