<svg xmlns="http://www.w3.org/2000/svg" xmlns:xlink="http://www.w3.org/1999/xlink" width="81.036" height="60.559" viewBox="0 0 81.036 60.559"><defs><clipPath id="a"><rect width="81.036" height="60.559" fill="#ff4a4b"/></clipPath></defs><g clip-path="url(#a)"><path d="M3.774,121.1c-.9-.068-1.063-.364-1.063-.878,0-.473.273-.744.961-.744H17.2v-2.012H3.33c-1.981,0-3.33.717-3.33,2.8s1.018,2.8,3.271,2.972l10.976.865c.847.068,1.076.337,1.076.9,0,.542-.259.879-1,.879H.546v2.04H14.563c2.41,0,3.471-.906,3.471-3.053,0-1.958-.962-2.729-3.314-2.918Zm21,2.8c0,1.46.315,1.986,2.037,1.986H39.069v2.04H26.125c-2.939,0-4.3-1.244-4.3-3.594v-6.862H39.069v2.041H24.778v2.052H38.494v2H24.778Zm39.5-6.43v2.041h6.9v8.415h2.941v-8.415h6.916v-2.041Zm-16.372,0c-2.941,0-4.29,1.472-4.29,3.823v6.633h2.94v-3.053H57.735v3.053h2.941V117.466Zm9.828,2.041v3.308H46.557V121.9c0-1.431.243-2.389,2.038-2.389Z" transform="translate(0 -67.363)" fill="#ff4a4b"/><path d="M141.893,117.466v2.041h6.9v8.415h2.941v-8.415h6.916v-2.041Z" transform="translate(-77.614 -67.363)" fill="#ff4a4b"/><path d="M37.368,14.4c.039-1.428.136-4.923.209-6.983.1-2.635.685-4.24,1.841-5.206C41.012.879,42.873.56,47.314.333A281.389,281.389,0,0,1,81.207.744a4.355,4.355,0,0,1,2.152.506c.581.375.655.8.809,2.988.089,1.255.267,4.6.362,6.444-4.528-.219-12.212-.59-18.907-.654s-12.721.038-13.437.124a3.268,3.268,0,0,0-2.332,1.1L84.6,17.317V22.09Z" transform="translate(-20.44 0)" fill="#ff4a4b"/><path d="M37.269,39.219,84.5,47.5c-.032,1.208-.138,5.044-.217,7.243-.1,2.636-.685,4.241-1.841,5.208-1.6,1.333-3.455,1.651-7.9,1.879a281.4,281.4,0,0,1-33.893-.412,4.364,4.364,0,0,1-2.152-.506c-.58-.375-.655-.8-.809-2.988-.1-1.468-.329-5.8-.4-7.234,6.091.387,15.447.671,23.073.671,1.914,0,6.893.057,8.218.057a3.746,3.746,0,0,0,3.135-1.305L37.269,44.58Z" transform="translate(-20.386 -22.491)" fill="#ff4a4b"/></g></svg>