<?xml version="1.0" encoding="utf-8"?>
<!-- Generator: Adobe Illustrator 27.3.0, SVG Export Plug-In . SVG Version: 6.00 Build 0)  -->
<svg version="1.1" id="Layer_1" xmlns="http://www.w3.org/2000/svg" xmlns:xlink="http://www.w3.org/1999/xlink" x="0px" y="0px"
	 viewBox="0 0 322.6 131.8" style="enable-background:new 0 0 322.6 131.8;" xml:space="preserve">
<style type="text/css">
	.st0{enable-background:new    ;}
	.st1{fill:#FF4A4B;}
</style>
<g transform="translate(1.909)">
	<g class="st0">
		<path class="st1" d="M50.2,89.3H26.1L22.9,101H-1.3L25,24.2h26.4L77.6,101H53.5L50.2,89.3z M45.7,73.3l-7.5-27.1l-7.6,27.1H45.7z"
			/>
		<path class="st1" d="M122.1,47.7l-1.5,19.5c-2.1-0.4-4.7-0.9-7.7-0.9c-6.8,0-10.8,3.9-10.8,12.2V101H79.9V48.5h19.4l2.7,10
			c3.4-7.8,9-11.5,15.3-11.5C119.2,47,120.6,47.2,122.1,47.7z"/>
		<path class="st1" d="M122.8,74.7c0-15.2,9.5-27.8,30.9-27.8c21.3,0,30.9,12.5,30.9,27.8c0,15.3-9.6,27.8-30.9,27.8
			C132.2,102.5,122.8,90,122.8,74.7z M162.4,74.7c0-6.6-3.6-10.8-8.8-10.8c-5.3,0-8.9,4.2-8.9,10.8c0,6.7,3.6,10.9,8.9,10.9
			C158.8,85.6,162.4,81.4,162.4,74.7z"/>
		<path class="st1" d="M248.2,69.4V101H226V73.5c0-7.6-1.8-10.3-6.3-10.3c-5.5,0-7,4.6-7,10.5V101h-22.2V48.5h19.8l2.3,7.5
			c3.7-5.7,9.7-9,17.4-9C242.8,47,248.2,56.3,248.2,69.4z"/>
		<path class="st1" d="M315.9,48.5V101h-20.7l-1.5-8.4c-2.7,4.8-7.7,9.9-16.7,9.9c-12.2,0-23.2-9.2-23.2-27.7
			c0-17.1,9.6-27.9,22.5-27.9c8.8,0,14.5,5.3,17.4,10.7v-9.2H315.9z M294.1,74.7c0-6.5-3.5-10.8-8.9-10.8c-5.4,0-8.9,4.3-8.9,10.8
			c0,6.6,3.5,10.9,8.9,10.9C290.6,85.6,294.1,81.2,294.1,74.7z"/>
	</g>
	<g class="st0">
		<path class="st1" d="M274.3,34.3l2.2-2.2c0.5,0.6,1.6,1.3,2.9,1.3c0.9,0,1.5-0.3,1.5-0.9c0-0.5-0.5-0.7-1.1-0.9l-1.4-0.4
			c-2.1-0.7-4-1.6-4-3.9c0-2.4,2.1-3.7,4.9-3.7c2.9,0,4.5,1.4,4.9,1.7l-2,2.3c-0.6-0.6-1.5-1.3-2.7-1.3c-0.9,0-1.3,0.4-1.3,0.8
			c0,0.6,0.8,0.8,1.3,1l1.4,0.4c1.4,0.4,3.7,1.2,3.7,3.8c0,2.5-2.1,3.9-5.1,3.9C277.3,36.2,275.4,35.5,274.3,34.3z"/>
		<path class="st1" d="M293.7,33V36H286V23.8h7.7v2.9h-4v1.6h3.7V31h-3.7v2H293.7z"/>
		<path class="st1" d="M302.5,34.1h-3.8l-0.5,1.9h-3.8l4.2-12.2h4.2l4.2,12.2H303L302.5,34.1z M301.8,31.6l-1.2-4.3l-1.2,4.3H301.8z
			"/>
		<path class="st1" d="M315.6,26.7h-3V36h-3.7v-9.2h-3v-2.9h9.7V26.7z"/>
	</g>
	<g class="st0">
		<path class="st1" d="M11.1,114.1v13.7H7l-3.9-7.7v7.7H-1v-13.7h4.1l3.9,7.7v-7.7H11.1z"/>
		<path class="st1" d="M12.7,123.1c0-2.7,1.7-5,5.5-5c3.8,0,5.5,2.2,5.5,5s-1.7,5-5.5,5C14.4,128,12.7,125.8,12.7,123.1z
			 M19.8,123.1c0-1.2-0.6-1.9-1.6-1.9c-0.9,0-1.6,0.8-1.6,1.9c0,1.2,0.6,1.9,1.6,1.9C19.1,125,19.8,124.3,19.8,123.1z"/>
		<path class="st1" d="M28.7,120.9c0-3.9,2.8-7.1,7.1-7.1c4.3,0,7.1,3.2,7.1,7.1s-2.8,7.1-7.1,7.1C31.5,128,28.7,124.9,28.7,120.9z
			 M38.7,120.9c0-2-1.3-3.3-2.9-3.3s-2.9,1.3-2.9,3.3s1.3,3.3,2.9,3.3S38.7,123,38.7,120.9z"/>
		<path class="st1" d="M51.9,118.3l-0.3,3.5c-0.4-0.1-0.8-0.2-1.4-0.2c-1.2,0-1.9,0.7-1.9,2.2v4h-4v-9.4h3.5l0.5,1.8
			c0.6-1.4,1.6-2.1,2.7-2.1C51.4,118.1,51.7,118.2,51.9,118.3z"/>
		<path class="st1" d="M63.6,114.1v13.7h-3.7l-0.3-1.5c-0.5,0.9-1.4,1.8-3,1.8c-2.2,0-4.1-1.6-4.1-4.9c0-3.1,1.7-5,4-5
			c1.6,0,2.6,0.9,3.1,1.9v-5.9H63.6z M59.7,123.1c0-1.2-0.6-1.9-1.6-1.9c-1,0-1.6,0.8-1.6,1.9c0,1.2,0.6,1.9,1.6,1.9
			C59.1,125,59.7,124.2,59.7,123.1z"/>
		<path class="st1" d="M65.3,115.2c0-1.2,0.9-2.1,2.1-2.1s2.1,0.9,2.1,2.1s-0.9,2.1-2.1,2.1S65.3,116.3,65.3,115.2z M65.4,118.4h4
			v9.4h-4V118.4z"/>
		<path class="st1" d="M81.5,122.1v5.6h-4v-4.9c0-1.4-0.3-1.8-1.1-1.8c-1,0-1.2,0.8-1.2,1.9v4.9h-4v-9.4h3.5l0.4,1.3
			c0.7-1,1.7-1.6,3.1-1.6C80.5,118.1,81.5,119.8,81.5,122.1z"/>
		<path class="st1" d="M94,118.4v9.4h-3.7l-0.3-1.5c-0.5,0.9-1.4,1.8-3,1.8c-2.2,0-4.1-1.6-4.1-4.9c0-3,1.7-5,4-5
			c1.6,0,2.6,0.9,3.1,1.9v-1.6H94z M90.1,123.1c0-1.2-0.6-1.9-1.6-1.9c-1,0-1.6,0.8-1.6,1.9c0,1.2,0.6,1.9,1.6,1.9
			C89.5,125,90.1,124.2,90.1,123.1z"/>
		<path class="st1" d="M103.2,118.3l-0.3,3.5c-0.4-0.1-0.8-0.2-1.4-0.2c-1.2,0-1.9,0.7-1.9,2.2v4h-4v-9.4h3.5l0.5,1.8
			c0.6-1.4,1.6-2.1,2.7-2.1C102.7,118.1,102.9,118.2,103.2,118.3z"/>
		<path class="st1" d="M114.8,118.4l-5.3,13.1h-3.4l1.2-3l-4.1-10.1h4.2l1.6,5.9l1.6-5.9H114.8z"/>
		<path class="st1" d="M132.1,120.9c0,3.8-2.8,6.8-7.6,6.8h-5.2v-13.7h5.2C129.4,114.1,132.1,117.2,132.1,120.9z M127.9,120.9
			c0-2.5-1.4-3.5-3.7-3.5h-0.7v7.1h0.7C126.4,124.5,127.9,123.4,127.9,120.9z"/>
		<path class="st1" d="M141.1,118.3l-0.3,3.5c-0.4-0.1-0.8-0.2-1.4-0.2c-1.2,0-1.9,0.7-1.9,2.2v4h-4v-9.4h3.5l0.5,1.8
			c0.6-1.4,1.6-2.1,2.7-2.1C140.6,118.1,140.8,118.2,141.1,118.3z"/>
		<path class="st1" d="M142.1,115.2c0-1.2,0.9-2.1,2.1-2.1s2.1,0.9,2.1,2.1s-0.9,2.1-2.1,2.1S142.1,116.3,142.1,115.2z M142.2,118.4
			h4v9.4h-4V118.4z"/>
		<path class="st1" d="M158.5,118.4l-3.8,9.4h-4l-3.8-9.4h4.2l1.6,6.1l1.6-6.1H158.5z"/>
		<path class="st1" d="M169.2,124h-6.8c0.1,1,0.8,1.5,2,1.5c1.3,0,2.1-0.6,2.5-0.9l2,1.8c-1.3,1.2-2.9,1.7-4.8,1.7
			c-3.8,0-5.7-2.1-5.7-5c0-2.8,1.9-5,5.5-5c3.3,0,5.3,1.8,5.3,5C169.2,123.5,169.2,123.7,169.2,124z M162.4,122.2h3
			c-0.1-1-0.6-1.5-1.5-1.5S162.5,121.2,162.4,122.2z"/>
	</g>
</g>
</svg>
