<svg xmlns="http://www.w3.org/2000/svg" width="258.033" height="58.115" viewBox="0 0 258.033 58.115"><path d="M97.436,23.239h0l-6.155,0V8.5a8.425,8.425,0,0,1,2.181-6.21C94.984.77,97.271,0,100.259,0h26.726V23.236l-6.156,0V16.455H97.436v6.784Zm4.264-18.7c-3.584,0-4.264,1.866-4.264,5.309v2.043h23.392V4.537Zm53.419,18.7h-6.155V4.537H134.52V0h35.07V4.537H155.12v18.7Zm-73.353,0H54.675c-3.028,0-5.319-.684-6.81-2.034-1.459-1.321-2.2-3.323-2.2-5.95V0h36.1V4.537H51.857V9.1h28.7v4.444h-28.7v.748c0,3.257.644,4.414,4.262,4.414H81.766v4.532Zm-51.289,0H1.144V18.705H29.967c1.435,0,2.1-.62,2.1-1.952s-.589-1.87-2.252-2.011L6.846,12.82C1.855,12.408,0,10.618,0,6.217,0,2.034,2.28,0,6.97,0H36V4.471H7.687c-1.354,0-2.012.541-2.012,1.655,0,1.15.354,1.8,2.223,1.95L30.809,9.969c2.545.218,4.233.78,5.312,1.768,1.107,1.014,1.623,2.513,1.623,4.718C37.744,21.209,35.571,23.237,30.477,23.237Z" transform="translate(88.443 17.429)" fill="#ff4a4b"/><path d="M0,21.095C.053,19,.188,13.882.289,10.864.42,7,1.234,4.653,2.826,3.238,5.027,1.286,7.594.82,13.718.487a365.36,365.36,0,0,1,46.75.6,5.739,5.739,0,0,1,2.97.741c.8.548.9,1.163,1.113,4.378.122,1.839.369,6.743.5,9.44-6.246-.321-16.846-.865-26.08-.957s-17.548.055-18.534.181a4.435,4.435,0,0,0-3.216,1.613l47.919,8.883v6.993Z" transform="translate(0.062 0)" fill="#ff4a4b"/><path d="M0,0,65.151,12.131c-.044,1.77-.19,7.39-.3,10.61-.131,3.862-.945,6.213-2.539,7.629-2.2,1.952-4.766,2.418-10.892,2.752a365.339,365.339,0,0,1-46.748-.6,5.745,5.745,0,0,1-2.97-.741C.9,31.231.8,30.615.589,27.4c-.144-2.151-.454-8.5-.557-10.6,8.4.567,21.307.982,31.825.982,2.642,0,9.509.083,11.335.083a5.024,5.024,0,0,0,4.324-1.913L0,7.855Z" transform="translate(0 24.506)" fill="#ff4a4b"/></svg>